<svg xmlns="http://www.w3.org/2000/svg" xmlns:xlink="http://www.w3.org/1999/xlink" width="100" zoomAndPan="magnify" viewBox="0 0 75 74.999997" height="100" preserveAspectRatio="xMidYMid meet" version="1.0"><defs><clipPath id="7b6e231f1e"><path d="M 0.582031 27.164062 L 59 27.164062 L 59 48 L 0.582031 48 Z M 0.582031 27.164062 " clip-rule="nonzero"/></clipPath></defs><path fill="#8fdcc2" d="M 68.148438 34.480469 C 67.96875 34.480469 67.796875 34.515625 67.644531 34.605469 L 62.800781 37.398438 C 62.488281 37.582031 62.296875 37.921875 62.296875 38.285156 L 62.296875 43.867188 C 62.296875 44.226562 62.488281 44.566406 62.800781 44.75 L 64.066406 45.476562 C 64.679688 45.78125 64.90625 45.777344 65.1875 45.777344 C 66.097656 45.777344 66.617188 45.222656 66.617188 44.265625 L 66.617188 38.757812 C 66.617188 38.679688 66.546875 38.625 66.472656 38.625 L 65.867188 38.625 C 65.789062 38.625 65.722656 38.679688 65.722656 38.757812 L 65.722656 44.265625 C 65.722656 44.691406 65.277344 45.121094 64.558594 44.761719 L 63.246094 43.988281 C 63.199219 43.964844 63.164062 43.917969 63.164062 43.867188 L 63.164062 38.285156 C 63.164062 38.230469 63.199219 38.179688 63.246094 38.152344 L 68.078125 35.367188 C 68.121094 35.339844 68.175781 35.339844 68.21875 35.367188 L 73.050781 38.152344 C 73.097656 38.179688 73.132812 38.230469 73.132812 38.285156 L 73.132812 43.867188 C 73.132812 43.917969 73.105469 43.972656 73.0625 44 L 68.222656 46.785156 C 68.179688 46.8125 68.121094 46.8125 68.078125 46.785156 L 66.832031 46.046875 C 66.796875 46.023438 66.746094 46.027344 66.710938 46.046875 C 66.367188 46.242188 66.300781 46.261719 65.980469 46.375 C 65.902344 46.402344 65.78125 46.445312 66.019531 46.582031 L 67.644531 47.539062 C 67.800781 47.628906 67.972656 47.671875 68.148438 47.671875 C 68.328125 47.671875 68.5 47.628906 68.652344 47.539062 L 73.492188 44.75 C 73.808594 44.570312 73.996094 44.230469 73.996094 43.867188 L 73.996094 38.285156 C 73.996094 37.921875 73.808594 37.582031 73.492188 37.402344 L 68.652344 34.605469 C 68.5 34.519531 68.328125 34.484375 68.148438 34.484375 Z M 69.441406 38.46875 C 68.0625 38.46875 67.242188 39.054688 67.242188 40.03125 C 67.242188 41.089844 68.058594 41.378906 69.378906 41.511719 C 70.964844 41.667969 71.085938 41.898438 71.085938 42.210938 C 71.085938 42.75 70.65625 42.980469 69.636719 42.980469 C 68.359375 42.980469 68.078125 42.660156 67.984375 42.023438 C 67.972656 41.957031 67.917969 41.902344 67.847656 41.902344 L 67.222656 41.902344 C 67.125 41.902344 67.078125 41.949219 67.078125 42.042969 C 67.078125 42.859375 67.519531 43.824219 69.636719 43.824219 C 71.167969 43.824219 72.050781 43.222656 72.050781 42.167969 C 72.050781 41.125 71.339844 40.84375 69.851562 40.648438 C 68.351562 40.445312 68.207031 40.351562 68.207031 40 C 68.207031 39.707031 68.328125 39.320312 69.441406 39.320312 C 70.433594 39.320312 70.800781 39.535156 70.953125 40.203125 C 70.964844 40.265625 71.019531 40.320312 71.085938 40.320312 L 71.714844 40.320312 C 71.753906 40.320312 71.789062 40.292969 71.816406 40.265625 C 71.84375 40.238281 71.863281 40.203125 71.859375 40.164062 C 71.761719 39.011719 70.992188 38.46875 69.441406 38.46875 Z M 69.441406 38.46875 " fill-opacity="1" fill-rule="nonzero"/><g clip-path="url(#7b6e231f1e)"><path fill="#8fdcc2" d="M 39.683594 27.164062 C 39.628906 27.164062 39.578125 27.175781 39.53125 27.203125 C 39.429688 27.265625 39.375 27.355469 39.375 27.472656 L 39.375 35.335938 C 39.375 35.414062 39.339844 35.480469 39.273438 35.519531 C 39.203125 35.5625 39.128906 35.5625 39.058594 35.519531 L 37.773438 34.78125 C 37.566406 34.660156 37.363281 34.660156 37.15625 34.78125 L 32.027344 37.742188 C 31.835938 37.851562 31.71875 38.0625 31.71875 38.285156 L 31.71875 44.207031 C 31.71875 44.445312 31.820312 44.621094 32.027344 44.742188 L 37.15625 47.699219 C 37.363281 47.820312 37.566406 47.820312 37.773438 47.699219 L 42.902344 44.742188 C 43.109375 44.621094 43.210938 44.445312 43.210938 44.207031 L 43.210938 29.445312 C 43.210938 29.222656 43.089844 29.011719 42.890625 28.902344 L 39.839844 27.195312 C 39.792969 27.167969 39.738281 27.164062 39.683594 27.164062 Z M 6.6875 34.554688 C 6.589844 34.558594 6.5 34.574219 6.410156 34.625 L 1.28125 37.585938 C 1.078125 37.703125 0.972656 37.882812 0.972656 38.121094 L 0.984375 46.066406 C 0.984375 46.175781 1.042969 46.28125 1.140625 46.332031 C 1.234375 46.390625 1.351562 46.390625 1.445312 46.332031 L 4.488281 44.585938 C 4.683594 44.472656 4.808594 44.273438 4.808594 44.050781 L 4.808594 40.339844 C 4.808594 40.121094 4.925781 39.917969 5.117188 39.804688 L 6.410156 39.054688 C 6.507812 39 6.609375 38.972656 6.71875 38.972656 C 6.832031 38.972656 6.933594 39 7.027344 39.054688 L 8.324219 39.804688 C 8.515625 39.917969 8.632812 40.121094 8.632812 40.339844 L 8.632812 44.050781 C 8.632812 44.273438 8.761719 44.472656 8.949219 44.585938 L 11.992188 46.332031 C 12.089844 46.390625 12.207031 46.390625 12.300781 46.332031 C 12.394531 46.277344 12.457031 46.175781 12.457031 46.066406 L 12.464844 38.121094 C 12.46875 37.882812 12.363281 37.703125 12.15625 37.585938 L 7.027344 34.625 C 6.941406 34.574219 6.847656 34.558594 6.75 34.554688 Z M 52.78125 34.625 C 52.667969 34.625 52.566406 34.652344 52.472656 34.707031 L 47.34375 37.667969 C 47.148438 37.78125 47.035156 37.980469 47.035156 38.203125 L 47.035156 44.125 C 47.035156 44.347656 47.160156 44.546875 47.351562 44.65625 L 52.441406 47.558594 C 52.628906 47.664062 52.855469 47.671875 53.046875 47.566406 L 56.128906 45.851562 C 56.226562 45.796875 56.292969 45.695312 56.292969 45.585938 C 56.292969 45.472656 56.238281 45.371094 56.140625 45.316406 L 50.980469 42.355469 C 50.882812 42.300781 50.816406 42.191406 50.816406 42.078125 L 50.816406 40.226562 C 50.816406 40.117188 50.882812 40.015625 50.980469 39.960938 L 52.582031 39.035156 C 52.679688 38.980469 52.796875 38.980469 52.890625 39.035156 L 54.5 39.960938 C 54.601562 40.019531 54.652344 40.109375 54.652344 40.226562 L 54.652344 41.6875 C 54.652344 41.804688 54.703125 41.894531 54.808594 41.953125 C 54.902344 42.011719 55.019531 42.011719 55.117188 41.953125 L 58.1875 40.164062 C 58.378906 40.054688 58.496094 39.851562 58.496094 39.632812 L 58.496094 38.203125 C 58.496094 37.964844 58.394531 37.789062 58.1875 37.667969 L 53.089844 34.707031 C 52.996094 34.652344 52.890625 34.625 52.78125 34.625 Z M 37.441406 39.046875 C 37.472656 39.046875 37.5 39.054688 37.527344 39.066406 L 39.28125 40.085938 C 39.332031 40.113281 39.367188 40.164062 39.367188 40.21875 L 39.367188 42.253906 C 39.367188 42.308594 39.332031 42.359375 39.28125 42.386719 L 37.527344 43.40625 C 37.476562 43.429688 37.417969 43.429688 37.371094 43.40625 L 35.613281 42.386719 C 35.566406 42.359375 35.53125 42.308594 35.53125 42.253906 L 35.53125 40.21875 C 35.53125 40.164062 35.566406 40.113281 35.613281 40.085938 L 37.371094 39.066406 C 37.394531 39.054688 37.417969 39.046875 37.441406 39.046875 Z M 37.441406 39.046875 " fill-opacity="1" fill-rule="nonzero"/></g><path fill="#8fdcc2" d="M 22.097656 34.59375 C 21.988281 34.59375 21.882812 34.621094 21.789062 34.675781 L 16.660156 37.628906 C 16.46875 37.738281 16.351562 37.949219 16.351562 38.171875 L 16.351562 44.09375 C 16.351562 44.332031 16.453125 44.507812 16.660156 44.628906 L 21.789062 47.585938 C 21.992188 47.707031 22.199219 47.707031 22.40625 47.585938 L 27.535156 44.628906 C 27.738281 44.507812 27.84375 44.332031 27.84375 44.09375 L 27.84375 38.171875 C 27.84375 37.949219 27.726562 37.738281 27.535156 37.628906 L 22.40625 34.675781 C 22.308594 34.621094 22.207031 34.59375 22.097656 34.59375 Z M 52.769531 39.878906 C 52.75 39.878906 52.726562 39.878906 52.707031 39.886719 L 51.722656 40.464844 C 51.679688 40.488281 51.660156 40.519531 51.660156 40.566406 L 51.660156 41.699219 C 51.660156 41.742188 51.683594 41.777344 51.722656 41.800781 L 52.707031 42.367188 C 52.746094 42.390625 52.78125 42.390625 52.820312 42.367188 L 53.808594 41.800781 C 53.84375 41.78125 53.867188 41.742188 53.867188 41.699219 L 53.867188 40.566406 C 53.867188 40.523438 53.84375 40.484375 53.808594 40.464844 L 52.820312 39.886719 C 52.800781 39.878906 52.789062 39.878906 52.769531 39.878906 Z M 52.769531 39.878906 " fill-opacity="1" fill-rule="nonzero"/></svg>