<svg xmlns="http://www.w3.org/2000/svg" xmlns:xlink="http://www.w3.org/1999/xlink" width="100" zoomAndPan="magnify" viewBox="0 0 75 74.999997" height="100" preserveAspectRatio="xMidYMid meet" version="1.0"><defs><clipPath id="12ad6ce4e0"><path d="M 0.667969 22 L 42 22 L 42 60 L 0.667969 60 Z M 0.667969 22 " clip-rule="nonzero"/></clipPath><clipPath id="99851b48ee"><path d="M 33 15 L 74.167969 15 L 74.167969 53 L 33 53 Z M 33 15 " clip-rule="nonzero"/></clipPath><clipPath id="ecd5f34a57"><path d="M 19 0.667969 L 56 0.667969 L 56 74.167969 L 19 74.167969 Z M 19 0.667969 " clip-rule="nonzero"/></clipPath></defs><g clip-path="url(#12ad6ce4e0)"><path fill="#8fdcc2" d="M 22.765625 59.597656 L 11.714844 59.597656 C 10.992188 59.597656 10.273438 59.523438 9.5625 59.382812 C 8.847656 59.242188 8.160156 59.03125 7.488281 58.753906 C 6.820312 58.476562 6.183594 58.136719 5.578125 57.730469 C 4.976562 57.328125 4.417969 56.871094 3.90625 56.359375 C 3.394531 55.84375 2.933594 55.285156 2.53125 54.683594 C 2.128906 54.082031 1.789062 53.445312 1.511719 52.773438 C 1.230469 52.105469 1.023438 51.414062 0.878906 50.703125 C 0.738281 49.992188 0.667969 49.273438 0.667969 48.546875 L 0.667969 33.816406 C 0.667969 33.089844 0.738281 32.371094 0.878906 31.660156 C 1.023438 30.949219 1.230469 30.257812 1.511719 29.589844 C 1.789062 28.917969 2.128906 28.28125 2.53125 27.679688 C 2.933594 27.074219 3.394531 26.519531 3.90625 26.003906 C 4.417969 25.492188 4.976562 25.035156 5.578125 24.632812 C 6.183594 24.226562 6.820312 23.886719 7.488281 23.609375 C 8.160156 23.332031 8.847656 23.121094 9.5625 22.980469 C 10.273438 22.835938 10.992188 22.765625 11.714844 22.765625 L 37.5 22.765625 C 37.988281 22.765625 38.457031 22.859375 38.90625 23.046875 C 39.359375 23.234375 39.757812 23.5 40.101562 23.84375 C 40.449219 24.191406 40.714844 24.585938 40.902344 25.039062 C 41.085938 25.492188 41.179688 25.960938 41.179688 26.449219 C 41.179688 26.9375 41.085938 27.40625 40.902344 27.859375 C 40.714844 28.308594 40.449219 28.707031 40.101562 29.054688 C 39.757812 29.398438 39.359375 29.664062 38.90625 29.851562 C 38.457031 30.039062 37.988281 30.132812 37.5 30.132812 L 11.714844 30.132812 C 11.226562 30.132812 10.757812 30.226562 10.304688 30.414062 C 9.855469 30.597656 9.457031 30.863281 9.109375 31.210938 C 8.765625 31.554688 8.5 31.953125 8.3125 32.40625 C 8.125 32.855469 8.03125 33.328125 8.03125 33.816406 L 8.03125 48.546875 C 8.03125 49.035156 8.125 49.507812 8.3125 49.957031 C 8.5 50.410156 8.765625 50.808594 9.109375 51.152344 C 9.457031 51.496094 9.855469 51.765625 10.304688 51.949219 C 10.757812 52.136719 11.226562 52.230469 11.714844 52.230469 L 22.765625 52.230469 C 23.253906 52.230469 23.722656 52.324219 24.175781 52.511719 C 24.625 52.699219 25.023438 52.964844 25.371094 53.308594 C 25.714844 53.65625 25.980469 54.054688 26.167969 54.503906 C 26.355469 54.957031 26.449219 55.425781 26.449219 55.914062 C 26.449219 56.402344 26.355469 56.871094 26.167969 57.324219 C 25.980469 57.773438 25.714844 58.171875 25.371094 58.519531 C 25.023438 58.863281 24.625 59.128906 24.175781 59.316406 C 23.722656 59.503906 23.253906 59.597656 22.765625 59.597656 Z M 22.765625 59.597656 " fill-opacity="1" fill-rule="nonzero"/></g><g clip-path="url(#99851b48ee)"><path fill="#8fdcc2" d="M 63.28125 52.230469 L 37.5 52.230469 C 37.007812 52.230469 36.539062 52.136719 36.089844 51.949219 C 35.636719 51.765625 35.238281 51.496094 34.894531 51.152344 C 34.546875 50.808594 34.28125 50.410156 34.09375 49.957031 C 33.910156 49.507812 33.816406 49.035156 33.816406 48.546875 C 33.816406 48.058594 33.910156 47.589844 34.09375 47.136719 C 34.28125 46.6875 34.546875 46.289062 34.894531 45.941406 C 35.238281 45.597656 35.636719 45.332031 36.089844 45.144531 C 36.539062 44.957031 37.007812 44.863281 37.5 44.863281 L 63.28125 44.863281 C 63.769531 44.863281 64.238281 44.769531 64.691406 44.585938 C 65.140625 44.398438 65.539062 44.132812 65.886719 43.785156 C 66.230469 43.441406 66.496094 43.042969 66.683594 42.589844 C 66.871094 42.140625 66.964844 41.667969 66.964844 41.179688 L 66.964844 26.449219 C 66.964844 25.960938 66.871094 25.492188 66.683594 25.039062 C 66.496094 24.585938 66.230469 24.191406 65.886719 23.84375 C 65.539062 23.5 65.140625 23.234375 64.691406 23.046875 C 64.238281 22.859375 63.769531 22.765625 63.28125 22.765625 L 52.230469 22.765625 C 51.742188 22.765625 51.273438 22.671875 50.820312 22.484375 C 50.371094 22.296875 49.972656 22.03125 49.625 21.6875 C 49.28125 21.339844 49.015625 20.941406 48.828125 20.492188 C 48.640625 20.039062 48.546875 19.570312 48.546875 19.082031 C 48.546875 18.59375 48.640625 18.125 48.828125 17.671875 C 49.015625 17.222656 49.28125 16.824219 49.625 16.476562 C 49.972656 16.132812 50.371094 15.867188 50.820312 15.679688 C 51.273438 15.492188 51.742188 15.398438 52.230469 15.398438 L 63.28125 15.398438 C 64.007812 15.398438 64.722656 15.472656 65.433594 15.613281 C 66.148438 15.753906 66.835938 15.964844 67.507812 16.242188 C 68.175781 16.519531 68.8125 16.863281 69.417969 17.265625 C 70.019531 17.667969 70.578125 18.125 71.089844 18.636719 C 71.601562 19.152344 72.0625 19.710938 72.464844 20.3125 C 72.867188 20.914062 73.207031 21.550781 73.484375 22.222656 C 73.765625 22.890625 73.972656 23.582031 74.117188 24.292969 C 74.257812 25.003906 74.328125 25.722656 74.332031 26.449219 L 74.332031 41.179688 C 74.328125 41.90625 74.257812 42.625 74.117188 43.335938 C 73.972656 44.046875 73.765625 44.738281 73.484375 45.40625 C 73.207031 46.078125 72.867188 46.714844 72.464844 47.316406 C 72.0625 47.921875 71.601562 48.476562 71.089844 48.992188 C 70.578125 49.503906 70.019531 49.960938 69.417969 50.367188 C 68.8125 50.769531 68.175781 51.109375 67.507812 51.386719 C 66.835938 51.664062 66.148438 51.875 65.433594 52.015625 C 64.722656 52.160156 64.007812 52.230469 63.28125 52.230469 Z M 63.28125 52.230469 " fill-opacity="1" fill-rule="nonzero"/></g><g clip-path="url(#ecd5f34a57)"><path fill="#8fdcc2" d="M 44.863281 74.332031 L 30.132812 74.332031 C 29.40625 74.328125 28.6875 74.257812 27.976562 74.117188 C 27.265625 73.972656 26.574219 73.765625 25.90625 73.484375 C 25.234375 73.207031 24.597656 72.867188 23.996094 72.464844 C 23.390625 72.0625 22.835938 71.601562 22.320312 71.089844 C 21.808594 70.578125 21.351562 70.019531 20.949219 69.417969 C 20.542969 68.8125 20.203125 68.175781 19.925781 67.507812 C 19.648438 66.835938 19.4375 66.148438 19.296875 65.433594 C 19.152344 64.722656 19.082031 64.007812 19.082031 63.28125 L 19.082031 44.863281 C 19.082031 44.140625 19.152344 43.421875 19.296875 42.710938 C 19.4375 42 19.648438 41.308594 19.925781 40.636719 C 20.203125 39.96875 20.542969 39.332031 20.949219 38.726562 C 21.351562 38.125 21.808594 37.566406 22.320312 37.054688 C 22.835938 36.542969 23.390625 36.082031 23.996094 35.679688 C 24.597656 35.277344 25.234375 34.9375 25.90625 34.660156 C 26.574219 34.382812 27.265625 34.171875 27.976562 34.027344 C 28.6875 33.886719 29.40625 33.816406 30.132812 33.816406 L 44.863281 33.816406 C 45.351562 33.816406 45.824219 33.722656 46.273438 33.535156 C 46.726562 33.347656 47.125 33.082031 47.46875 32.734375 C 47.8125 32.390625 48.082031 31.992188 48.265625 31.542969 C 48.453125 31.089844 48.546875 30.621094 48.546875 30.132812 L 48.546875 11.714844 C 48.546875 11.226562 48.453125 10.757812 48.265625 10.304688 C 48.082031 9.855469 47.8125 9.457031 47.46875 9.109375 C 47.125 8.765625 46.726562 8.5 46.273438 8.3125 C 45.824219 8.125 45.351562 8.03125 44.863281 8.03125 L 30.132812 8.03125 C 29.644531 8.03125 29.171875 8.125 28.722656 8.3125 C 28.269531 8.5 27.871094 8.765625 27.527344 9.109375 C 27.183594 9.457031 26.914062 9.855469 26.730469 10.304688 C 26.542969 10.757812 26.449219 11.226562 26.449219 11.714844 L 26.449219 26.449219 C 26.449219 26.9375 26.355469 27.40625 26.167969 27.859375 C 25.980469 28.308594 25.714844 28.707031 25.371094 29.054688 C 25.023438 29.398438 24.625 29.664062 24.175781 29.851562 C 23.722656 30.039062 23.253906 30.132812 22.765625 30.132812 C 22.277344 30.132812 21.808594 30.039062 21.355469 29.851562 C 20.90625 29.664062 20.507812 29.398438 20.160156 29.054688 C 19.816406 28.707031 19.550781 28.308594 19.363281 27.859375 C 19.175781 27.40625 19.082031 26.9375 19.082031 26.449219 L 19.082031 11.714844 C 19.082031 10.992188 19.152344 10.273438 19.296875 9.5625 C 19.4375 8.847656 19.648438 8.160156 19.925781 7.488281 C 20.203125 6.820312 20.542969 6.183594 20.949219 5.578125 C 21.351562 4.976562 21.808594 4.417969 22.320312 3.90625 C 22.835938 3.394531 23.390625 2.933594 23.996094 2.53125 C 24.597656 2.128906 25.234375 1.789062 25.90625 1.511719 C 26.574219 1.230469 27.265625 1.023438 27.976562 0.878906 C 28.6875 0.738281 29.40625 0.667969 30.132812 0.667969 L 44.863281 0.667969 C 45.589844 0.667969 46.308594 0.738281 47.019531 0.878906 C 47.730469 1.023438 48.421875 1.230469 49.089844 1.511719 C 49.761719 1.789062 50.398438 2.128906 51 2.53125 C 51.605469 2.933594 52.160156 3.394531 52.675781 3.90625 C 53.1875 4.417969 53.644531 4.976562 54.046875 5.578125 C 54.453125 6.183594 54.792969 6.820312 55.070312 7.488281 C 55.347656 8.160156 55.558594 8.847656 55.699219 9.5625 C 55.84375 10.273438 55.914062 10.992188 55.914062 11.714844 L 55.914062 30.132812 C 55.914062 30.855469 55.84375 31.574219 55.699219 32.285156 C 55.558594 32.996094 55.347656 33.6875 55.070312 34.359375 C 54.792969 35.027344 54.453125 35.664062 54.046875 36.269531 C 53.644531 36.871094 53.1875 37.429688 52.675781 37.941406 C 52.160156 38.453125 51.605469 38.914062 51 39.316406 C 50.398438 39.71875 49.761719 40.058594 49.089844 40.335938 C 48.421875 40.613281 47.730469 40.824219 47.019531 40.96875 C 46.308594 41.109375 45.589844 41.179688 44.863281 41.179688 L 30.132812 41.179688 C 29.644531 41.179688 29.171875 41.273438 28.722656 41.460938 C 28.269531 41.648438 27.871094 41.914062 27.527344 42.261719 C 27.183594 42.605469 26.914062 43.003906 26.730469 43.453125 C 26.542969 43.90625 26.449219 44.375 26.449219 44.863281 L 26.449219 63.28125 C 26.449219 63.769531 26.542969 64.238281 26.730469 64.691406 C 26.914062 65.140625 27.183594 65.539062 27.527344 65.886719 C 27.871094 66.230469 28.269531 66.496094 28.722656 66.683594 C 29.171875 66.871094 29.644531 66.964844 30.132812 66.964844 L 44.863281 66.964844 C 45.351562 66.964844 45.824219 66.871094 46.273438 66.683594 C 46.726562 66.496094 47.125 66.230469 47.46875 65.886719 C 47.8125 65.539062 48.082031 65.140625 48.265625 64.691406 C 48.453125 64.238281 48.546875 63.769531 48.546875 63.28125 L 48.546875 48.546875 C 48.546875 48.058594 48.640625 47.589844 48.828125 47.136719 C 49.015625 46.6875 49.28125 46.289062 49.625 45.941406 C 49.972656 45.597656 50.371094 45.332031 50.820312 45.144531 C 51.273438 44.957031 51.742188 44.863281 52.230469 44.863281 C 52.71875 44.863281 53.1875 44.957031 53.640625 45.144531 C 54.089844 45.332031 54.488281 45.597656 54.835938 45.941406 C 55.179688 46.289062 55.445312 46.6875 55.632812 47.136719 C 55.820312 47.589844 55.914062 48.058594 55.914062 48.546875 L 55.914062 63.28125 C 55.914062 64.007812 55.84375 64.722656 55.699219 65.433594 C 55.558594 66.148438 55.347656 66.835938 55.070312 67.507812 C 54.792969 68.175781 54.453125 68.8125 54.046875 69.417969 C 53.644531 70.019531 53.1875 70.578125 52.675781 71.089844 C 52.160156 71.601562 51.605469 72.0625 51 72.464844 C 50.398438 72.867188 49.761719 73.207031 49.089844 73.484375 C 48.421875 73.765625 47.730469 73.972656 47.019531 74.117188 C 46.308594 74.257812 45.589844 74.328125 44.863281 74.332031 Z M 44.863281 74.332031 " fill-opacity="1" fill-rule="nonzero"/></g><path fill="#8fdcc2" d="M 33.816406 19.117188 C 33.324219 19.121094 32.855469 19.027344 32.402344 18.84375 C 31.949219 18.65625 31.550781 18.390625 31.203125 18.046875 C 30.855469 17.703125 30.589844 17.304688 30.398438 16.851562 C 30.210938 16.402344 30.117188 15.929688 30.113281 15.441406 C 30.113281 14.953125 30.203125 14.480469 30.386719 14.027344 C 30.574219 13.578125 30.835938 13.175781 31.183594 12.828125 C 31.527344 12.480469 31.921875 12.210938 32.375 12.023438 C 32.824219 11.832031 33.296875 11.738281 33.785156 11.734375 C 34.273438 11.730469 34.746094 11.820312 35.199219 12.007812 C 35.652344 12.191406 36.050781 12.453125 36.398438 12.796875 C 36.746094 13.140625 37.015625 13.539062 37.207031 13.988281 C 37.398438 14.441406 37.496094 14.910156 37.5 15.398438 L 37.5 15.4375 C 37.5 15.925781 37.40625 16.394531 37.21875 16.84375 C 37.03125 17.296875 36.765625 17.695312 36.417969 18.039062 C 36.074219 18.386719 35.675781 18.652344 35.222656 18.839844 C 34.773438 19.027344 34.304688 19.117188 33.816406 19.117188 Z M 33.816406 19.117188 " fill-opacity="1" fill-rule="nonzero"/><path fill="#8fdcc2" d="M 41.179688 63.316406 C 40.691406 63.320312 40.222656 63.226562 39.769531 63.039062 C 39.316406 62.855469 38.917969 62.589844 38.570312 62.246094 C 38.222656 61.898438 37.953125 61.5 37.765625 61.050781 C 37.578125 60.597656 37.480469 60.128906 37.480469 59.640625 C 37.476562 59.152344 37.570312 58.679688 37.753906 58.226562 C 37.941406 57.773438 38.203125 57.375 38.546875 57.027344 C 38.890625 56.679688 39.289062 56.410156 39.742188 56.222656 C 40.191406 56.03125 40.660156 55.933594 41.152344 55.933594 C 41.640625 55.929688 42.109375 56.019531 42.5625 56.203125 C 43.015625 56.390625 43.417969 56.652344 43.765625 56.996094 C 44.113281 57.339844 44.382812 57.738281 44.574219 58.1875 C 44.765625 58.636719 44.859375 59.109375 44.863281 59.597656 L 44.863281 59.632812 C 44.863281 60.121094 44.769531 60.59375 44.585938 61.042969 C 44.398438 61.496094 44.132812 61.894531 43.785156 62.238281 C 43.441406 62.582031 43.042969 62.851562 42.589844 63.035156 C 42.140625 63.222656 41.667969 63.316406 41.179688 63.316406 Z M 41.179688 63.316406 " fill-opacity="1" fill-rule="nonzero"/></svg>