<svg xmlns="http://www.w3.org/2000/svg" xmlns:xlink="http://www.w3.org/1999/xlink" width="100" zoomAndPan="magnify" viewBox="0 0 75 74.999997" height="100" preserveAspectRatio="xMidYMid meet" version="1.0"><defs><clipPath id="5ef4b05932"><path d="M 5.242188 0.691406 L 69.742188 0.691406 L 69.742188 74.191406 L 5.242188 74.191406 Z M 5.242188 0.691406 " clip-rule="nonzero"/></clipPath></defs><rect x="-7.5" width="90" fill="#ffffff" y="-7.5" height="89.999996" fill-opacity="1"/><rect x="-7.5" width="90" fill="#243831" y="-7.5" height="89.999996" fill-opacity="1"/><g clip-path="url(#5ef4b05932)"><path fill="#8fdcc2" d="M 11.101562 66.78125 L 5.226562 0.894531 L 69.773438 0.894531 L 63.894531 66.773438 L 37.457031 74.097656 Z M 11.101562 66.78125 " fill-opacity="1" fill-rule="nonzero"/></g><path fill="#243831" d="M 58.859375 62.578125 L 63.886719 6.28125 L 37.5 6.28125 L 37.5 68.5 Z M 58.859375 62.578125 " fill-opacity="1" fill-rule="nonzero"/><path fill="#243831" d="M 37.472656 14.363281 L 17.234375 14.363281 L 19.414062 38.800781 L 37.5 38.800781 L 37.5 30.71875 L 26.808594 30.71875 L 26.066406 22.445312 L 37.5 22.445312 L 37.5 14.363281 Z M 37.5 51.679688 L 37.464844 51.6875 L 28.464844 49.257812 L 27.894531 42.816406 L 19.777344 42.816406 L 20.910156 55.5 L 37.464844 60.078125 L 37.5 60.066406 Z M 37.5 51.679688 " fill-opacity="1" fill-rule="nonzero"/><path fill="#8fdcc2" d="M 37.472656 38.800781 L 47.421875 38.800781 L 46.507812 49.277344 L 37.496094 51.707031 L 37.496094 60.117188 L 54.0625 55.523438 L 56.28125 30.714844 L 37.5 30.714844 Z M 57.519531 16.53125 L 57.714844 14.363281 L 37.46875 14.363281 L 37.46875 22.441406 L 56.984375 22.441406 L 57.144531 20.625 Z M 57.519531 16.53125 " fill-opacity="1" fill-rule="nonzero"/></svg>