<svg xmlns="http://www.w3.org/2000/svg" xmlns:xlink="http://www.w3.org/1999/xlink" width="100" zoomAndPan="magnify" viewBox="0 0 75 74.999997" height="100" preserveAspectRatio="xMidYMid meet" version="1.0"><defs><clipPath id="1a4a248da5"><path d="M 0.671875 5 L 74.171875 5 L 74.171875 70 L 0.671875 70 Z M 0.671875 5 " clip-rule="nonzero"/></clipPath></defs><path fill="#8fdcc2" d="M 44.085938 37.34375 C 44.085938 37.773438 44.042969 38.203125 43.957031 38.628906 C 43.875 39.050781 43.75 39.464844 43.582031 39.863281 C 43.417969 40.261719 43.214844 40.644531 42.976562 41.003906 C 42.734375 41.363281 42.460938 41.695312 42.15625 42 C 41.851562 42.308594 41.515625 42.582031 41.15625 42.820312 C 40.796875 43.0625 40.417969 43.265625 40.019531 43.429688 C 39.617188 43.59375 39.207031 43.71875 38.78125 43.804688 C 38.359375 43.890625 37.929688 43.929688 37.496094 43.929688 C 37.0625 43.929688 36.636719 43.890625 36.210938 43.804688 C 35.785156 43.71875 35.375 43.59375 34.976562 43.429688 C 34.574219 43.265625 34.195312 43.0625 33.835938 42.820312 C 33.476562 42.582031 33.144531 42.308594 32.835938 42 C 32.53125 41.695312 32.257812 41.363281 32.019531 41.003906 C 31.777344 40.644531 31.574219 40.261719 31.410156 39.863281 C 31.242188 39.464844 31.117188 39.050781 31.035156 38.628906 C 30.949219 38.203125 30.90625 37.773438 30.90625 37.34375 C 30.90625 36.910156 30.949219 36.480469 31.035156 36.058594 C 31.117188 35.632812 31.242188 35.222656 31.410156 34.820312 C 31.574219 34.421875 31.777344 34.042969 32.019531 33.683594 C 32.257812 33.320312 32.53125 32.988281 32.835938 32.683594 C 33.144531 32.378906 33.476562 32.105469 33.835938 31.863281 C 34.195312 31.625 34.574219 31.421875 34.976562 31.253906 C 35.375 31.089844 35.785156 30.964844 36.210938 30.878906 C 36.636719 30.796875 37.0625 30.753906 37.496094 30.753906 C 37.929688 30.753906 38.359375 30.796875 38.78125 30.878906 C 39.207031 30.964844 39.617188 31.089844 40.019531 31.253906 C 40.417969 31.421875 40.796875 31.625 41.15625 31.863281 C 41.515625 32.105469 41.851562 32.378906 42.15625 32.683594 C 42.460938 32.988281 42.734375 33.320312 42.976562 33.683594 C 43.214844 34.042969 43.417969 34.421875 43.582031 34.820312 C 43.75 35.222656 43.875 35.632812 43.957031 36.058594 C 44.042969 36.480469 44.085938 36.910156 44.085938 37.34375 Z M 44.085938 37.34375 " fill-opacity="1" fill-rule="nonzero"/><g clip-path="url(#1a4a248da5)"><path fill="#8fdcc2" d="M 14.523438 49.011719 C 15.171875 49.226562 15.816406 49.441406 16.480469 49.628906 C 16.265625 50.492188 16.078125 51.34375 15.902344 52.21875 C 14.394531 60.207031 15.574219 66.535156 19.339844 68.707031 C 23.226562 70.949219 29.757812 68.648438 36.117188 63.082031 C 36.617188 62.636719 37.121094 62.175781 37.625 61.683594 C 38.257812 62.304688 38.921875 62.894531 39.582031 63.46875 C 45.738281 68.761719 51.820312 70.902344 55.578125 68.734375 C 59.464844 66.492188 60.726562 59.6875 59.089844 51.402344 C 58.960938 50.769531 58.816406 50.121094 58.65625 49.457031 C 59.117188 49.328125 59.5625 49.183594 60.007812 49.039062 C 68.3125 46.292969 74.324219 41.847656 74.324219 37.289062 C 74.324219 32.929688 68.65625 28.699219 60.828125 26.007812 C 60.050781 25.75 59.277344 25.503906 58.5 25.273438 C 58.628906 24.742188 58.746094 24.207031 58.859375 23.675781 C 60.628906 15.101562 59.464844 8.214844 55.535156 5.941406 C 51.75 3.769531 45.578125 6.027344 39.335938 11.464844 C 38.71875 11.996094 38.117188 12.558594 37.539062 13.121094 C 37.148438 12.746094 36.746094 12.371094 36.347656 12.011719 C 29.800781 6.199219 23.242188 3.753906 19.3125 6.042969 C 15.546875 8.230469 14.421875 14.71875 16.003906 22.828125 C 16.164062 23.632812 16.335938 24.421875 16.535156 25.230469 C 15.617188 25.488281 14.710938 25.777344 13.859375 26.078125 C 6.179688 28.742188 0.671875 32.941406 0.671875 37.289062 C 0.671875 41.777344 6.539062 46.277344 14.523438 49.011719 Z M 34.085938 60.730469 C 31.714844 62.902344 28.964844 64.628906 25.972656 65.808594 C 24.378906 66.570312 22.535156 66.644531 20.894531 65.996094 C 18.609375 64.671875 17.65625 59.59375 18.953125 52.761719 C 19.109375 51.957031 19.28125 51.148438 19.480469 50.359375 C 22.703125 51.046875 25.953125 51.523438 29.25 51.765625 C 31.148438 54.457031 33.234375 57.03125 35.464844 59.449219 C 35.003906 59.890625 34.542969 60.324219 34.085938 60.726562 Z M 52.355469 33.71875 C 51.679688 32.449219 50.992188 31.1875 50.269531 29.949219 C 49.5625 28.726562 48.828125 27.519531 48.070312 26.324219 C 50.386719 26.613281 52.601562 27 54.671875 27.476562 C 54.011719 29.605469 53.234375 31.675781 52.355469 33.71875 Z M 52.382812 40.882812 C 53.304688 42.96875 54.109375 45.082031 54.8125 47.253906 C 52.582031 47.757812 50.328125 48.148438 48.054688 48.40625 C 48.828125 47.195312 49.5625 45.960938 50.285156 44.722656 C 51.019531 43.457031 51.707031 42.175781 52.382812 40.882812 Z M 50.71875 37.300781 C 49.757812 39.289062 48.71875 41.242188 47.613281 43.171875 C 46.523438 45.082031 45.355469 46.9375 44.132812 48.78125 C 41.992188 48.941406 39.761719 49.011719 37.503906 49.011719 C 35.242188 49.011719 33.058594 48.941406 30.945312 48.808594 C 29.691406 46.980469 28.515625 45.109375 27.40625 43.199219 C 26.296875 41.285156 25.277344 39.34375 24.3125 37.359375 L 24.308594 37.359375 C 25.253906 35.371094 26.292969 33.429688 27.382812 31.519531 C 28.476562 29.605469 29.660156 27.75 30.894531 25.921875 C 33.054688 25.765625 35.253906 25.679688 37.5 25.679688 C 39.746094 25.679688 41.957031 25.765625 44.105469 25.921875 C 45.324219 27.738281 46.492188 29.589844 47.597656 31.488281 C 48.707031 33.390625 49.742188 35.332031 50.71875 37.300781 Z M 24.707031 29.976562 C 24 31.199219 23.308594 32.449219 22.660156 33.714844 C 21.757812 31.574219 20.992188 29.472656 20.359375 27.445312 C 22.429688 26.984375 24.632812 26.609375 26.917969 26.320312 C 26.160156 27.515625 25.410156 28.738281 24.707031 29.976562 Z M 22.664062 40.996094 C 23.328125 42.261719 24.003906 43.515625 24.722656 44.75 C 25.453125 46.003906 26.203125 47.253906 26.996094 48.476562 C 24.75 48.230469 22.519531 47.871094 20.320312 47.394531 C 20.953125 45.324219 21.746094 43.183594 22.664062 40.996094 Z M 37.613281 57.230469 C 36.144531 55.652344 34.679688 53.898438 33.253906 52.011719 C 34.636719 52.070312 36.058594 52.097656 37.5 52.097656 C 38.980469 52.097656 40.433594 52.070312 41.871094 51.996094 C 40.550781 53.820312 39.125 55.566406 37.613281 57.230469 Z M 56.414062 61.550781 C 56.285156 63.304688 55.421875 64.945312 54.039062 66.050781 C 51.753906 67.375 46.878906 65.648438 41.613281 61.132812 C 41.007812 60.613281 40.402344 60.050781 39.785156 59.476562 C 41.984375 57.046875 44.015625 54.472656 45.855469 51.769531 C 49.148438 51.496094 52.429688 50.992188 55.667969 50.257812 C 55.8125 50.847656 55.941406 51.4375 56.058594 52.015625 C 56.761719 55.125 56.875 58.359375 56.414062 61.550781 Z M 57.664062 28.238281 C 58.414062 28.453125 59.132812 28.683594 59.824219 28.914062 C 66.523438 31.214844 71.230469 34.640625 71.230469 37.257812 C 71.230469 40.078125 66.207031 43.714844 59.03125 46.089844 C 58.628906 46.21875 58.226562 46.347656 57.808594 46.464844 C 56.800781 43.328125 55.566406 40.265625 54.140625 37.285156 C 55.523438 34.351562 56.6875 31.328125 57.664062 28.238281 Z M 41.363281 13.796875 C 46.71875 9.136719 51.707031 7.3125 53.980469 8.617188 C 56.414062 10.015625 57.347656 15.652344 55.824219 23.058594 C 55.722656 23.546875 55.621094 24.023438 55.492188 24.5 C 52.296875 23.78125 49.0625 23.261719 45.808594 22.972656 C 43.941406 20.296875 41.898438 17.734375 39.679688 15.332031 C 40.242188 14.800781 40.789062 14.296875 41.363281 13.796875 Z M 37.527344 17.535156 C 39.039062 19.175781 40.460938 20.898438 41.785156 22.683594 C 38.9375 22.554688 36.074219 22.554688 33.226562 22.683594 C 34.632812 20.828125 36.089844 19.105469 37.527344 17.535156 Z M 20.839844 8.71875 C 23.257812 7.3125 28.621094 9.324219 34.273438 14.328125 C 34.632812 14.644531 34.992188 14.992188 35.367188 15.335938 C 33.136719 17.734375 31.078125 20.296875 29.195312 22.972656 C 25.945312 23.257812 22.722656 23.761719 19.527344 24.46875 C 19.339844 23.734375 19.183594 22.988281 19.023438 22.238281 C 17.671875 15.273438 18.566406 10.027344 20.839844 8.71875 Z M 14.871094 29 C 15.6875 28.710938 16.523438 28.453125 17.359375 28.207031 C 18.335938 31.328125 19.515625 34.394531 20.882812 37.355469 C 19.5 40.363281 18.308594 43.46875 17.316406 46.632812 L 17.3125 46.636719 C 16.707031 46.464844 16.117188 46.277344 15.53125 46.074219 C 12.46875 45.109375 8.984375 43.585938 6.46875 41.585938 C 5.015625 40.582031 4.035156 39.027344 3.765625 37.285156 C 3.765625 34.652344 8.308594 31.285156 14.871094 29 Z M 14.871094 29 " fill-opacity="1" fill-rule="nonzero"/></g></svg>