<svg xmlns="http://www.w3.org/2000/svg" xmlns:xlink="http://www.w3.org/1999/xlink" width="100" zoomAndPan="magnify" viewBox="0 0 75 74.999997" height="100" preserveAspectRatio="xMidYMid meet" version="1.0"><defs><clipPath id="e3e9991ac1"><path d="M 20 0.605469 L 55 0.605469 L 55 74.105469 L 20 74.105469 Z M 20 0.605469 " clip-rule="nonzero"/></clipPath></defs><g clip-path="url(#e3e9991ac1)"><path fill="#8fdcc2" d="M 43.867188 8.949219 C 40.78125 5.289062 38.125 1.570312 37.582031 0.796875 C 37.570312 0.785156 37.554688 0.773438 37.535156 0.765625 C 37.519531 0.757812 37.5 0.753906 37.480469 0.753906 C 37.464844 0.753906 37.445312 0.757812 37.429688 0.765625 C 37.410156 0.773438 37.394531 0.785156 37.382812 0.796875 C 36.839844 1.570312 34.183594 5.289062 31.097656 8.949219 C 4.617188 42.71875 35.269531 65.511719 35.269531 65.511719 L 35.527344 65.683594 C 35.753906 69.199219 36.324219 74.261719 36.324219 74.261719 L 38.609375 74.261719 C 38.609375 74.261719 39.183594 69.230469 39.410156 65.683594 L 39.667969 65.484375 C 39.695312 65.511719 70.347656 42.71875 43.867188 8.949219 Z M 37.46875 64.996094 C 37.46875 64.996094 36.097656 63.824219 35.726562 63.222656 L 35.726562 63.167969 L 37.382812 26.390625 C 37.382812 26.277344 37.554688 26.277344 37.554688 26.390625 L 39.210938 63.167969 L 39.210938 63.222656 C 38.839844 63.824219 37.46875 64.996094 37.46875 64.996094 Z M 37.46875 64.996094 " fill-opacity="1" fill-rule="nonzero"/></g></svg>