<svg xmlns="http://www.w3.org/2000/svg" xmlns:xlink="http://www.w3.org/1999/xlink" width="100" zoomAndPan="magnify" viewBox="0 0 75 74.999997" height="100" preserveAspectRatio="xMidYMid meet" version="1.0"><defs><clipPath id="cfe013fe41"><path d="M 7.640625 1.289062 L 67.640625 1.289062 L 67.640625 74.039062 L 7.640625 74.039062 Z M 7.640625 1.289062 " clip-rule="nonzero"/></clipPath></defs><path fill="#8fdcc2" d="M 37.414062 6.949219 L 27.566406 6.949219 C 20.769531 6.949219 15.257812 12.464844 15.257812 19.257812 C 15.257812 23.296875 17.25 26.867188 20.253906 29.105469 C 17.226562 31.347656 15.257812 34.917969 15.257812 38.953125 C 15.257812 42.992188 17.25 46.5625 20.253906 48.800781 C 17.226562 51.042969 15.257812 54.613281 15.257812 58.648438 C 15.257812 65.445312 20.769531 70.960938 27.566406 70.960938 C 34.363281 70.960938 39.875 65.445312 39.875 58.648438 L 39.875 48.726562 C 41.945312 50.277344 44.480469 51.265625 47.261719 51.265625 C 54.058594 51.265625 59.570312 45.75 59.570312 38.953125 C 59.570312 34.917969 57.578125 31.347656 54.574219 29.105469 C 57.601562 26.867188 59.570312 23.296875 59.570312 19.257812 C 59.570312 12.464844 54.058594 6.949219 47.261719 6.949219 Z M 34.953125 58.648438 C 34.953125 62.710938 31.628906 66.035156 27.566406 66.035156 C 23.503906 66.035156 20.179688 62.710938 20.179688 58.648438 C 20.179688 54.585938 23.503906 51.265625 27.566406 51.265625 L 34.953125 51.265625 Z M 34.953125 46.339844 L 27.566406 46.339844 C 23.503906 46.339844 20.179688 43.015625 20.179688 38.953125 C 20.179688 34.890625 23.503906 31.566406 27.566406 31.566406 L 34.953125 31.566406 Z M 34.953125 26.644531 L 27.566406 26.644531 C 23.503906 26.644531 20.179688 23.320312 20.179688 19.257812 C 20.179688 15.195312 23.503906 11.871094 27.566406 11.871094 L 34.953125 11.871094 Z M 54.648438 38.953125 C 54.648438 43.015625 51.324219 46.339844 47.261719 46.339844 C 43.199219 46.339844 39.875 43.015625 39.875 38.953125 C 39.875 34.890625 43.199219 31.566406 47.261719 31.566406 C 51.324219 31.566406 54.648438 34.890625 54.648438 38.953125 Z M 54.648438 19.257812 C 54.648438 23.320312 51.324219 26.644531 47.261719 26.644531 L 39.875 26.644531 L 39.875 11.871094 L 47.261719 11.871094 C 51.324219 11.871094 54.648438 15.195312 54.648438 19.257812 Z M 54.648438 19.257812 " fill-opacity="1" fill-rule="nonzero"/><g clip-path="url(#cfe013fe41)"><path fill="#8fdcc2" d="M 84.191406 78.34375 L 83.871094 78.34375 C 83.109375 78.34375 82.371094 77.976562 81.902344 77.359375 C 81.433594 76.746094 81.285156 75.957031 81.484375 75.21875 C 81.632812 74.675781 81.703125 74.085938 81.703125 73.421875 L 81.703125 -4.351562 L 38.867188 -47.214844 L -4.4375 -47.214844 C -5.792969 -47.214844 -6.902344 -48.320312 -6.902344 -49.675781 C -6.902344 -56.472656 -1.386719 -61.984375 5.410156 -61.984375 L 84.191406 -61.984375 C 90.988281 -61.984375 96.5 -56.472656 96.5 -49.675781 L 96.5 66.035156 C 96.5 72.832031 90.988281 78.34375 84.191406 78.34375 Z M -1.558594 -52.136719 L 39.875 -52.136719 C 40.539062 -52.136719 41.15625 -51.867188 41.625 -51.425781 L 85.9375 -7.109375 C 86.40625 -6.640625 86.652344 -6.027344 86.652344 -5.359375 L 86.652344 73.003906 C 89.507812 71.992188 91.578125 69.261719 91.578125 66.035156 L 91.578125 -49.675781 C 91.578125 -53.738281 88.253906 -57.0625 84.191406 -57.0625 L 5.410156 -57.0625 C 2.207031 -57.0625 -0.550781 -54.992188 -1.558594 -52.136719 Z M -1.558594 -52.136719 " fill-opacity="1" fill-rule="nonzero"/><path fill="#8fdcc2" d="M 86.628906 -5.507812 C 86.628906 -5.730469 86.578125 -5.925781 86.503906 -6.148438 C 86.480469 -6.222656 86.457031 -6.296875 86.433594 -6.371094 C 86.308594 -6.640625 86.160156 -6.886719 85.9375 -7.085938 L 41.625 -51.425781 C 41.402344 -51.644531 41.15625 -51.792969 40.910156 -51.917969 C 40.835938 -51.941406 40.761719 -51.964844 40.6875 -51.992188 C 40.46875 -52.0625 40.269531 -52.113281 40.046875 -52.113281 C 40 -52.113281 39.949219 -52.136719 39.902344 -52.136719 L -4.4375 -52.136719 C -11.234375 -52.136719 -16.75 -46.625 -16.75 -39.828125 L -16.75 73.421875 C -16.75 80.214844 -11.234375 85.730469 -4.4375 85.730469 L 74.34375 85.730469 C 81.136719 85.730469 86.652344 80.214844 86.652344 73.421875 L 86.652344 -5.359375 C 86.652344 -5.359375 86.628906 -5.460938 86.628906 -5.507812 Z M 78.257812 -7.824219 L 54.648438 -7.824219 C 47.851562 -7.824219 42.339844 -13.335938 42.339844 -20.132812 L 42.339844 -43.742188 Z M 74.34375 80.808594 L -4.4375 80.808594 C -8.5 80.808594 -11.824219 77.484375 -11.824219 73.421875 L -11.824219 -39.828125 C -11.824219 -43.890625 -8.5 -47.214844 -4.4375 -47.214844 L 37.414062 -47.214844 L 37.414062 -20.132812 C 37.414062 -10.628906 45.144531 -2.898438 54.648438 -2.898438 L 81.730469 -2.898438 L 81.730469 73.421875 C 81.730469 77.484375 78.40625 80.808594 74.34375 80.808594 Z M 74.34375 80.808594 " fill-opacity="1" fill-rule="nonzero"/></g></svg>