<svg xmlns="http://www.w3.org/2000/svg" xmlns:xlink="http://www.w3.org/1999/xlink" width="100" zoomAndPan="magnify" viewBox="0 0 75 74.999997" height="100" preserveAspectRatio="xMidYMid meet" version="1.0"><defs><clipPath id="869734f689"><path d="M 1.238281 1.238281 L 73.988281 1.238281 L 73.988281 73.988281 L 1.238281 73.988281 Z M 1.238281 1.238281 " clip-rule="nonzero"/></clipPath><clipPath id="41e3d8c195"><path d="M 48 1.238281 L 73.988281 1.238281 L 73.988281 27 L 48 27 Z M 48 1.238281 " clip-rule="nonzero"/></clipPath></defs><g clip-path="url(#869734f689)"><path fill="#8fdcc2" d="M 1.070312 3.929688 C 1.070312 2.535156 2.199219 1.40625 3.59375 1.40625 L 50.65625 1.40625 C 51.324219 1.40625 51.964844 1.671875 52.4375 2.144531 L 72.605469 22.316406 C 73.078125 22.789062 73.34375 23.429688 73.34375 24.097656 L 73.34375 71.160156 C 73.34375 72.550781 72.214844 73.679688 70.824219 73.679688 L 3.59375 73.679688 C 2.199219 73.679688 1.070312 72.550781 1.070312 71.160156 L 1.070312 37.542969 C 1.070312 36.152344 2.199219 35.023438 3.59375 35.023438 C 4.984375 35.023438 6.113281 36.152344 6.113281 37.542969 L 6.113281 68.636719 L 68.300781 68.636719 L 68.300781 25.140625 L 49.609375 6.449219 L 6.113281 6.449219 L 6.113281 24.097656 C 6.113281 25.492188 4.984375 26.621094 3.59375 26.621094 C 2.199219 26.621094 1.070312 25.492188 1.070312 24.097656 Z M 1.070312 3.929688 " fill-opacity="1" fill-rule="evenodd"/></g><g clip-path="url(#41e3d8c195)"><path fill="#8fdcc2" d="M 49.691406 1.601562 C 50.632812 1.210938 51.714844 1.425781 52.4375 2.144531 L 72.605469 22.316406 C 73.328125 23.035156 73.542969 24.121094 73.152344 25.0625 C 72.761719 26.003906 71.84375 26.621094 70.824219 26.621094 L 50.65625 26.621094 C 49.261719 26.621094 48.132812 25.492188 48.132812 24.097656 L 48.132812 3.929688 C 48.132812 2.910156 48.746094 1.988281 49.691406 1.601562 Z M 53.175781 10.015625 L 53.175781 21.578125 L 64.738281 21.578125 Z M 53.175781 10.015625 " fill-opacity="1" fill-rule="evenodd"/></g><path fill="#8fdcc2" d="M 39.730469 32.503906 C 39.730469 31.109375 40.859375 29.980469 42.25 29.980469 L 60.738281 29.980469 C 62.132812 29.980469 63.261719 31.109375 63.261719 32.503906 C 63.261719 33.894531 62.132812 35.023438 60.738281 35.023438 L 44.773438 35.023438 L 44.773438 43.425781 L 60.738281 43.425781 C 62.132812 43.425781 63.261719 44.554688 63.261719 45.949219 L 63.261719 59.394531 C 63.261719 60.785156 62.132812 61.914062 60.738281 61.914062 L 42.25 61.914062 C 40.859375 61.914062 39.730469 60.785156 39.730469 59.394531 C 39.730469 58.003906 40.859375 56.875 42.25 56.875 L 58.21875 56.875 L 58.21875 48.46875 L 42.25 48.46875 C 40.859375 48.46875 39.730469 47.339844 39.730469 45.949219 Z M 39.730469 32.503906 " fill-opacity="1" fill-rule="evenodd"/><path fill="#8fdcc2" d="M 7.792969 32.503906 C 7.792969 31.109375 8.921875 29.980469 10.316406 29.980469 L 33.847656 29.980469 C 35.238281 29.980469 36.367188 31.109375 36.367188 32.503906 C 36.367188 33.894531 35.238281 35.023438 33.847656 35.023438 L 24.601562 35.023438 L 24.601562 62.757812 C 24.601562 64.148438 23.472656 65.277344 22.082031 65.277344 C 20.6875 65.277344 19.558594 64.148438 19.558594 62.757812 L 19.558594 35.023438 L 10.316406 35.023438 C 8.921875 35.023438 7.792969 33.894531 7.792969 32.503906 Z M 7.792969 32.503906 " fill-opacity="1" fill-rule="evenodd"/></svg>