<svg xmlns="http://www.w3.org/2000/svg" xmlns:xlink="http://www.w3.org/1999/xlink" width="100" zoomAndPan="magnify" viewBox="0 0 75 74.999997" height="100" preserveAspectRatio="xMidYMid meet" version="1.0"><defs><clipPath id="684af3cfd5"><path d="M 4.34375 1.214844 L 70.34375 1.214844 L 70.34375 73.964844 L 4.34375 73.964844 Z M 4.34375 1.214844 " clip-rule="nonzero"/></clipPath></defs><g clip-path="url(#684af3cfd5)"><path fill="#8fdcc2" d="M 37.496094 1.214844 C 36.371094 1.214844 35.257812 1.496094 34.25 2.058594 L 7.796875 16.925781 C 5.78125 18.0625 4.511719 20.179688 4.511719 22.472656 L 4.511719 52.203125 C 4.511719 54.503906 5.78125 56.621094 7.796875 57.757812 L 34.25 72.617188 C 36.261719 73.75 38.730469 73.75 40.742188 72.617188 L 67.195312 57.757812 C 69.214844 56.621094 70.480469 54.5 70.480469 52.203125 L 70.480469 22.472656 C 70.480469 20.179688 69.207031 18.0625 67.195312 16.925781 L 40.742188 2.058594 C 39.734375 1.496094 38.617188 1.214844 37.496094 1.214844 Z M 37.496094 4.355469 C 38.085938 4.355469 38.679688 4.503906 39.207031 4.796875 L 65.664062 19.664062 C 66.710938 20.257812 67.335938 21.324219 67.335938 22.472656 L 67.335938 35.765625 L 64.195312 35.765625 L 64.195312 32.625 L 61.054688 32.625 L 61.054688 35.765625 L 57.914062 35.765625 L 57.914062 38.910156 L 61.054688 38.910156 L 61.054688 42.050781 L 64.195312 42.050781 L 64.195312 38.910156 L 67.335938 38.910156 L 67.335938 52.203125 C 67.335938 53.351562 66.710938 54.417969 65.65625 55.011719 L 39.207031 69.878906 C 38.152344 70.46875 36.839844 70.46875 35.785156 69.878906 L 9.335938 55.011719 C 8.28125 54.417969 7.652344 53.355469 7.652344 52.203125 L 7.652344 22.472656 C 7.652344 21.324219 8.28125 20.257812 9.335938 19.664062 L 35.785156 4.796875 C 36.3125 4.503906 36.90625 4.355469 37.496094 4.355469 Z M 37.496094 16.921875 C 26.25 16.921875 17.078125 26.09375 17.078125 37.339844 C 17.078125 48.582031 26.25 57.757812 37.496094 57.757812 C 43.917969 57.757812 49.882812 54.761719 53.734375 49.6875 L 54.808594 48.269531 L 45.300781 42.761719 L 44.441406 43.695312 C 42.667969 45.632812 40.152344 46.761719 37.496094 46.761719 C 32.285156 46.761719 28.070312 42.546875 28.070312 37.339844 C 28.070312 32.128906 32.285156 27.914062 37.496094 27.914062 C 40.152344 27.914062 42.667969 29.042969 44.441406 30.980469 L 45.300781 31.914062 L 54.808594 26.40625 L 53.734375 24.988281 C 49.882812 19.914062 43.917969 16.921875 37.496094 16.921875 Z M 37.496094 20.0625 C 42.324219 20.0625 46.742188 22.128906 49.976562 25.578125 L 45.667969 28.066406 C 43.398438 26.078125 40.574219 24.773438 37.496094 24.773438 C 30.582031 24.773438 24.929688 30.421875 24.929688 37.339844 C 24.929688 44.253906 30.582031 49.902344 37.496094 49.902344 C 40.574219 49.902344 43.398438 48.597656 45.667969 46.609375 L 49.976562 49.097656 C 46.742188 52.546875 42.324219 54.613281 37.496094 54.613281 C 27.957031 54.613281 20.21875 46.878906 20.21875 37.339844 C 20.21875 27.796875 27.957031 20.0625 37.496094 20.0625 Z M 50.0625 32.625 L 50.0625 35.765625 L 46.917969 35.765625 L 46.917969 38.910156 L 50.0625 38.910156 L 50.0625 42.050781 L 53.203125 42.050781 L 53.203125 38.910156 L 56.34375 38.910156 L 56.34375 35.765625 L 53.203125 35.765625 L 53.203125 32.625 Z M 50.0625 32.625 " fill-opacity="1" fill-rule="nonzero"/></g></svg>