<svg xmlns="http://www.w3.org/2000/svg" xmlns:xlink="http://www.w3.org/1999/xlink" width="100" zoomAndPan="magnify" viewBox="0 0 75 74.999997" height="100" preserveAspectRatio="xMidYMid meet" version="1.0"><defs><clipPath id="7a963ca923"><path d="M 0.65625 42 L 32 42 L 32 57 L 0.65625 57 Z M 0.65625 42 " clip-rule="nonzero"/></clipPath><clipPath id="3144a60c8e"><path d="M 70 50 L 74.15625 50 L 74.15625 54 L 70 54 Z M 70 50 " clip-rule="nonzero"/></clipPath></defs><g clip-path="url(#7a963ca923)"><path fill="#8fdcc2" d="M 0.921875 53.511719 L 3.332031 53.511719 L 3.332031 44 L 7.0625 52.296875 C 7.503906 53.296875 8.105469 53.65625 9.289062 53.65625 C 10.46875 53.65625 11.050781 53.300781 11.488281 52.296875 L 15.222656 44 L 15.222656 53.515625 L 17.632812 53.515625 L 17.632812 44.015625 C 17.632812 43.089844 17.261719 42.640625 16.496094 42.410156 C 14.664062 41.835938 13.4375 42.332031 12.878906 43.566406 L 9.21875 51.753906 L 5.671875 43.5625 C 5.140625 42.328125 3.890625 41.832031 2.058594 42.40625 C 1.292969 42.636719 0.921875 43.085938 0.921875 44.011719 Z M 19.632812 45.765625 L 22.042969 45.765625 L 22.042969 51.011719 C 22.019531 51.296875 22.136719 51.964844 23.457031 51.984375 C 24.128906 51.996094 28.652344 51.984375 28.695312 51.984375 L 28.695312 45.742188 L 31.109375 45.742188 C 31.121094 45.742188 31.109375 54.253906 31.109375 54.289062 C 31.121094 56.390625 28.503906 56.847656 27.296875 56.882812 L 19.6875 56.882812 L 19.6875 55.261719 L 27.308594 55.257812 C 28.859375 55.09375 28.679688 54.324219 28.679688 54.066406 L 28.679688 53.433594 L 23.554688 53.433594 C 21.171875 53.410156 19.65625 52.371094 19.636719 51.175781 C 19.636719 51.066406 19.6875 45.820312 19.636719 45.765625 Z M 19.632812 45.765625 " fill-opacity="1" fill-rule="nonzero"/></g><path fill="#8fdcc2" d="M 32.96875 53.511719 L 39.898438 53.511719 C 40.707031 53.511719 41.496094 53.34375 42.121094 53.050781 C 43.164062 52.570312 43.675781 51.921875 43.675781 51.070312 L 43.675781 49.3125 C 43.675781 48.617188 43.09375 47.96875 41.960938 47.535156 C 41.359375 47.300781 40.617188 47.179688 39.898438 47.179688 L 36.976562 47.179688 C 36.003906 47.179688 35.542969 46.886719 35.425781 46.238281 C 35.402344 46.160156 35.402344 46.09375 35.402344 46.019531 L 35.402344 44.921875 C 35.402344 44.863281 35.402344 44.800781 35.425781 44.722656 C 35.542969 44.226562 35.796875 44.089844 36.652344 44.007812 C 36.722656 44.007812 36.816406 43.992188 36.886719 43.992188 L 43.769531 43.992188 L 43.769531 42.386719 L 37 42.386719 C 36.027344 42.386719 35.519531 42.449219 35.054688 42.585938 C 33.617188 43.035156 32.992188 43.75 32.992188 44.984375 L 32.992188 46.390625 C 32.992188 47.472656 34.21875 48.398438 36.28125 48.617188 C 36.511719 48.632812 36.746094 48.648438 36.976562 48.648438 L 39.480469 48.648438 C 39.570312 48.648438 39.664062 48.648438 39.734375 48.664062 C 40.496094 48.722656 40.824219 48.863281 41.054688 49.140625 C 41.199219 49.285156 41.238281 49.417969 41.238281 49.570312 L 41.238281 50.976562 C 41.238281 51.144531 41.125 51.363281 40.894531 51.546875 C 40.683594 51.734375 40.335938 51.855469 39.871094 51.886719 C 39.78125 51.886719 39.710938 51.902344 39.617188 51.902344 L 32.96875 51.902344 Z M 58.707031 50.71875 C 58.707031 52.371094 59.9375 53.296875 62.414062 53.480469 C 62.648438 53.5 62.878906 53.511719 63.109375 53.511719 L 69.390625 53.511719 L 69.390625 51.90625 L 63.066406 51.90625 C 61.652344 51.90625 61.117188 51.550781 61.117188 50.703125 L 61.117188 42.390625 L 58.707031 42.390625 Z M 45.210938 50.800781 L 45.210938 45.074219 C 45.210938 43.617188 46.234375 42.734375 48.253906 42.457031 C 48.46875 42.425781 48.6875 42.410156 48.902344 42.410156 L 53.480469 42.410156 C 53.703125 42.410156 53.929688 42.425781 54.152344 42.457031 C 56.171875 42.734375 57.195312 43.617188 57.195312 45.074219 L 57.195312 50.800781 C 57.195312 51.980469 56.761719 52.613281 55.761719 53.023438 L 58.132812 55.167969 L 55.335938 55.167969 L 53.414062 53.433594 L 51.480469 53.554688 L 48.90625 53.554688 C 48.464844 53.554688 48 53.496094 47.488281 53.355469 C 45.953125 52.9375 45.210938 52.132812 45.210938 50.800781 Z M 47.8125 50.65625 C 47.8125 50.734375 47.835938 50.8125 47.859375 50.90625 C 48.003906 51.570312 48.625 51.941406 49.574219 51.941406 L 51.765625 51.941406 L 49.753906 50.128906 L 52.550781 50.128906 L 54.300781 51.710938 C 54.625 51.539062 54.835938 51.273438 54.910156 50.9375 C 54.933594 50.859375 54.933594 50.78125 54.933594 50.703125 L 54.933594 45.210938 C 54.933594 45.152344 54.933594 45.070312 54.910156 44.996094 C 54.765625 44.375 54.140625 44.019531 53.214844 44.019531 L 49.582031 44.019531 C 48.507812 44.019531 47.816406 44.484375 47.816406 45.210938 L 47.816406 50.660156 Z M 47.8125 50.65625 " fill-opacity="1" fill-rule="nonzero"/><path fill="#8fdcc2" d="M 71.507812 39.722656 C 70.027344 39.683594 68.898438 39.820312 67.929688 40.230469 C 67.65625 40.347656 67.214844 40.347656 67.171875 40.691406 C 67.320312 40.851562 67.347656 41.089844 67.464844 41.28125 C 67.695312 41.65625 68.085938 42.15625 68.433594 42.417969 C 68.816406 42.707031 69.207031 43.015625 69.613281 43.261719 C 70.339844 43.703125 71.148438 43.957031 71.847656 44.398438 C 72.257812 44.660156 72.667969 44.988281 73.070312 45.285156 C 73.265625 45.429688 73.402344 45.65625 73.65625 45.746094 L 73.65625 45.707031 C 73.523438 45.53125 73.488281 45.296875 73.363281 45.117188 L 72.816406 44.570312 C 72.28125 43.855469 71.601562 43.234375 70.878906 42.714844 C 70.300781 42.300781 69.011719 41.742188 68.773438 41.070312 L 68.730469 41.03125 C 69.136719 40.984375 69.617188 40.835938 69.992188 40.734375 C 70.628906 40.566406 71.191406 40.609375 71.847656 40.441406 L 72.730469 40.1875 L 72.730469 40.019531 C 72.402344 39.679688 72.164062 39.230469 71.804688 38.921875 C 70.863281 38.121094 69.832031 37.316406 68.773438 36.648438 C 68.183594 36.277344 67.457031 36.035156 66.835938 35.722656 C 66.625 35.617188 66.257812 35.5625 66.117188 35.382812 C 65.792969 34.96875 65.613281 34.4375 65.359375 33.957031 C 64.832031 32.9375 64.3125 31.824219 63.84375 30.753906 C 63.523438 30.023438 63.316406 29.304688 62.917969 28.648438 C 61.003906 25.503906 58.945312 23.605469 55.757812 21.738281 C 55.078125 21.34375 54.261719 21.1875 53.398438 20.980469 L 52.007812 20.898438 C 51.726562 20.78125 51.429688 20.433594 51.164062 20.265625 C 50.109375 19.597656 47.398438 18.144531 46.617188 20.050781 C 46.121094 21.253906 47.355469 22.429688 47.796875 23.042969 C 48.105469 23.46875 48.5 23.949219 48.722656 24.433594 C 48.867188 24.75 48.890625 25.066406 49.015625 25.402344 C 49.324219 26.222656 49.589844 27.125 49.984375 27.886719 C 50.183594 28.273438 50.40625 28.679688 50.660156 29.023438 C 50.816406 29.234375 51.082031 29.328125 51.121094 29.65625 C 50.863281 30.019531 50.847656 30.585938 50.703125 31.046875 C 50.042969 33.121094 50.292969 35.703125 51.25 37.238281 C 51.542969 37.710938 52.234375 38.722656 53.1875 38.332031 C 54.019531 37.996094 53.828125 36.945312 54.070312 36.015625 C 54.125 35.804688 54.09375 35.652344 54.199219 35.511719 L 54.199219 35.554688 L 54.957031 37.070312 C 55.515625 37.972656 56.511719 38.917969 57.355469 39.554688 C 57.792969 39.886719 58.144531 40.457031 58.703125 40.652344 L 58.703125 40.609375 L 58.664062 40.609375 C 58.554688 40.4375 58.382812 40.367188 58.242188 40.230469 C 57.910156 39.90625 57.546875 39.503906 57.273438 39.136719 C 56.503906 38.09375 55.828125 36.953125 55.207031 35.765625 C 54.914062 35.199219 54.65625 34.574219 54.410156 33.996094 C 54.3125 33.773438 54.3125 33.4375 54.113281 33.320312 C 53.839844 33.746094 53.441406 34.085938 53.230469 34.585938 C 52.890625 35.382812 52.847656 36.355469 52.722656 37.367188 C 52.648438 37.390625 52.683594 37.375 52.640625 37.410156 C 52.054688 37.265625 51.847656 36.664062 51.628906 36.144531 C 51.078125 34.832031 50.976562 32.722656 51.460938 31.214844 C 51.585938 30.824219 52.152344 29.597656 51.921875 29.234375 C 51.8125 28.875 51.453125 28.664062 51.25 28.394531 C 51 28.054688 50.75 27.605469 50.574219 27.214844 C 50.125 26.191406 49.914062 25.046875 49.4375 24.011719 C 49.210938 23.519531 48.828125 23.019531 48.511719 22.582031 C 48.160156 22.097656 47.769531 21.738281 47.5 21.15625 C 47.402344 20.945312 47.273438 20.613281 47.417969 20.398438 C 47.445312 20.257812 47.53125 20.175781 47.667969 20.144531 C 47.914062 19.957031 48.59375 20.207031 48.847656 20.3125 C 49.523438 20.59375 50.089844 20.859375 50.660156 21.238281 C 50.933594 21.417969 51.210938 21.773438 51.542969 21.871094 L 51.921875 21.871094 C 52.515625 22.007812 53.179688 21.914062 53.734375 22.082031 C 54.714844 22.378906 55.589844 22.84375 56.386719 23.347656 C 58.816406 24.878906 60.800781 27.0625 62.160156 29.667969 C 62.378906 30.085938 62.472656 30.488281 62.664062 30.933594 C 63.050781 31.824219 63.542969 32.75 63.929688 33.628906 C 64.3125 34.503906 64.6875 35.386719 65.234375 36.113281 C 65.519531 36.496094 66.628906 36.699219 67.128906 36.914062 C 67.480469 37.0625 68.058594 37.21875 68.394531 37.417969 C 69.03125 37.804688 69.648438 38.261719 70.246094 38.683594 C 70.546875 38.894531 71.464844 39.355469 71.511719 39.734375 Z M 71.507812 39.722656 " fill-opacity="1" fill-rule="nonzero"/><path fill="#8fdcc2" d="M 52.683594 23.675781 C 52.375 23.667969 52.15625 23.707031 51.925781 23.757812 L 51.925781 23.800781 L 51.964844 23.800781 C 52.113281 24.105469 52.375 24.300781 52.554688 24.558594 L 52.976562 25.445312 L 53.019531 25.402344 C 53.28125 25.21875 53.398438 24.925781 53.398438 24.476562 C 53.292969 24.367188 53.277344 24.226562 53.1875 24.097656 C 53.066406 23.921875 52.832031 23.820312 52.683594 23.675781 Z M 52.683594 23.675781 " fill-opacity="1" fill-rule="evenodd"/><g clip-path="url(#3144a60c8e)"><path fill="#8fdcc2" d="M 70.523438 51.859375 C 70.523438 52.921875 71.363281 53.636719 72.300781 53.636719 C 73.238281 53.636719 74.074219 52.921875 74.074219 51.859375 C 74.074219 50.800781 73.238281 50.085938 72.300781 50.085938 C 71.363281 50.085938 70.523438 50.800781 70.523438 51.859375 Z M 73.679688 51.859375 C 73.679688 52.664062 73.0625 53.265625 72.300781 53.265625 C 71.527344 53.265625 70.921875 52.664062 70.921875 51.859375 C 70.921875 51.054688 71.527344 50.453125 72.300781 50.453125 C 73.0625 50.453125 73.679688 51.054688 73.679688 51.859375 Z M 72.777344 52.875 L 73.175781 52.875 L 72.59375 51.984375 C 72.90625 51.949219 73.140625 51.800781 73.140625 51.429688 C 73.140625 51.019531 72.882812 50.847656 72.378906 50.847656 L 71.589844 50.847656 L 71.589844 52.875 L 71.929688 52.875 L 71.929688 52 L 72.246094 52 Z M 71.929688 51.714844 L 71.929688 51.132812 L 72.324219 51.132812 C 72.527344 51.132812 72.773438 51.167969 72.773438 51.40625 C 72.773438 51.691406 72.550781 51.714844 72.292969 51.714844 Z M 71.929688 51.714844 " fill-opacity="1" fill-rule="evenodd"/></g></svg>