<svg xmlns="http://www.w3.org/2000/svg" xmlns:xlink="http://www.w3.org/1999/xlink" width="100" zoomAndPan="magnify" viewBox="0 0 75 74.999997" height="100" preserveAspectRatio="xMidYMid meet" version="1.0"><defs><clipPath id="8ab426ffc7"><path d="M 1.097656 1.097656 L 73.847656 1.097656 L 73.847656 73.847656 L 1.097656 73.847656 Z M 1.097656 1.097656 " clip-rule="nonzero"/></clipPath></defs><g clip-path="url(#8ab426ffc7)"><path fill="#8fdcc2" d="M 72.378906 73.894531 L 2.613281 73.894531 C 1.777344 73.894531 1.097656 73.214844 1.097656 72.378906 L 1.097656 2.613281 C 1.097656 1.777344 1.777344 1.097656 2.613281 1.097656 L 72.378906 1.097656 C 73.214844 1.097656 73.894531 1.777344 73.894531 2.613281 L 73.894531 72.378906 C 73.894531 73.214844 73.214844 73.894531 72.378906 73.894531 Z M 4.132812 70.863281 L 70.863281 70.863281 L 70.863281 4.132812 L 4.132812 4.132812 Z M 30.785156 68.519531 C 28.289062 68.519531 25.976562 67.921875 24.023438 66.753906 C 22.1875 65.652344 20.652344 63.90625 19.589844 61.703125 C 19.25 61.003906 19.496094 60.160156 20.160156 59.75 L 25.464844 56.480469 C 25.703125 56.335938 25.976562 56.257812 26.257812 56.257812 C 27.167969 56.257812 27.570312 56.945312 27.808594 57.359375 C 28.527344 58.5625 28.925781 59.074219 29.699219 59.460938 C 29.714844 59.449219 30.125 59.566406 30.636719 59.5625 C 31.222656 59.5625 31.917969 59.417969 32.226562 58.777344 C 32.539062 58.117188 32.511719 55.546875 32.492188 53.667969 L 32.476562 51.550781 L 32.503906 34.679688 C 32.503906 33.839844 33.183594 33.160156 34.019531 33.160156 L 40.554688 33.160156 C 40.976562 33.160156 41.375 33.339844 41.664062 33.648438 C 41.953125 33.957031 42.097656 34.371094 42.0625 34.789062 L 42.0625 40.855469 C 42.074219 44.847656 42.078125 48.832031 42.058594 52.8125 L 42.078125 54.375 C 42.128906 57.578125 42.175781 60.597656 40.71875 63.257812 C 39.609375 65.523438 37.40625 67.261719 34.542969 68.085938 C 33.257812 68.378906 32 68.519531 30.785156 68.519531 Z M 22.984375 61.574219 C 23.703125 62.679688 24.585938 63.558594 25.578125 64.15625 C 27.773438 65.46875 30.769531 65.835938 33.789062 65.152344 C 35.136719 64.761719 37.050781 63.847656 38.023438 61.863281 C 39.128906 59.84375 39.089844 57.335938 39.039062 54.429688 L 39.023438 52.8125 C 39.046875 48.824219 39.039062 44.847656 39.027344 40.863281 L 39.023438 36.199219 L 35.527344 36.199219 L 35.503906 51.554688 L 35.519531 53.640625 C 35.554688 57.183594 35.542969 59.078125 34.898438 60.195312 C 33.746094 62.605469 30.882812 63.003906 28.578125 62.28125 C 27.15625 61.59375 26.382812 60.753906 25.777344 59.855469 Z M 26.253906 57.933594 L 25.078125 58.703125 Z M 26.324219 57.886719 L 26.347656 57.875 Z M 55.859375 68.214844 C 51.777344 68.214844 47.707031 66.792969 45.265625 64.328125 L 44.621094 63.597656 C 43.851562 62.730469 43.183594 61.980469 42.597656 60.644531 C 42.285156 59.933594 42.5625 59.105469 43.230469 58.71875 L 48.550781 55.664062 C 49.25 55.265625 50.132812 55.476562 50.574219 56.144531 C 51.929688 58.199219 52.941406 58.984375 54.738281 59.382812 C 56.273438 59.566406 57.761719 59.269531 58.375 58.605469 C 58.488281 58.476562 58.839844 58.101562 58.648438 57.117188 C 58.371094 56.230469 56.390625 55.394531 54.480469 54.589844 C 52.621094 53.8125 50.519531 52.925781 48.707031 51.570312 C 46.460938 50.058594 44.914062 47.425781 44.53125 44.386719 C 44.148438 41.367188 44.980469 38.441406 46.828125 36.355469 C 48.089844 34.796875 50.195312 33.542969 52.574219 32.964844 L 54.792969 32.675781 C 59.125 32.578125 62.125 33.6875 64.347656 36.175781 C 64.957031 36.765625 65.433594 37.449219 66.199219 38.636719 C 66.417969 38.976562 66.492188 39.394531 66.402344 39.789062 C 66.316406 40.183594 66.070312 40.53125 65.722656 40.742188 C 63.640625 42.039062 63.640625 42.039062 60.648438 43.992188 C 60.277344 44.234375 59.828125 44.300781 59.40625 44.179688 C 58.984375 44.058594 58.632812 43.765625 58.445312 43.367188 C 58.011719 42.445312 57.332031 41.800781 56.535156 41.554688 C 55.867188 41.359375 55.070312 41.414062 54.5625 41.707031 C 54.195312 41.917969 54.097656 42.1875 54.054688 42.367188 C 53.988281 42.605469 53.929688 42.789062 54.175781 43.667969 C 54.429688 44.207031 55.863281 44.824219 57.246094 45.421875 C 57.691406 45.613281 58.140625 45.808594 58.582031 46.011719 C 64.523438 48.421875 67.5 51.359375 68.164062 55.5 C 68.195312 55.695312 68.1875 55.894531 68.144531 56.078125 C 68.40625 58.324219 68.03125 59.964844 67.765625 60.785156 C 66.761719 64.21875 63.964844 66.6875 59.898438 67.71875 C 58.589844 68.054688 57.222656 68.214844 55.859375 68.214844 Z M 46.054688 60.597656 C 46.285156 60.910156 46.554688 61.210938 46.882812 61.582031 L 47.492188 62.273438 C 49.929688 64.730469 54.96875 65.84375 59.148438 64.785156 C 60.875 64.347656 63.914062 63.132812 64.855469 59.917969 C 65.042969 59.335938 65.398438 57.894531 65.03125 55.8125 C 65.003906 55.644531 65 55.480469 65.027344 55.320312 C 64.527344 53.34375 62.992188 51.082031 57.363281 48.796875 C 56.878906 48.574219 56.457031 48.390625 56.042969 48.210938 C 54.117188 47.382812 52.125 46.527344 51.320312 44.683594 C 50.953125 43.417969 50.832031 42.5625 51.125 41.589844 C 51.359375 40.570312 52.03125 39.671875 53.042969 39.085938 C 54.277344 38.363281 55.910156 38.203125 57.414062 38.65625 C 58.535156 39 59.511719 39.675781 60.273438 40.613281 C 61.492188 39.820312 62.019531 39.476562 62.78125 39 C 62.554688 38.695312 62.363281 38.480469 62.148438 38.269531 C 60.449219 36.371094 58.347656 35.613281 55.011719 35.699219 L 53.117188 35.945312 C 51.566406 36.335938 50.015625 37.234375 49.136719 38.320312 C 47.828125 39.796875 47.261719 41.855469 47.535156 44.003906 C 47.804688 46.148438 48.902344 48.050781 50.457031 49.105469 C 52.035156 50.277344 53.871094 51.054688 55.648438 51.800781 C 58.382812 52.949219 60.96875 54.039062 61.589844 56.382812 C 61.59375 56.410156 61.601562 56.4375 61.605469 56.464844 C 62.039062 58.566406 61.296875 59.910156 60.597656 60.667969 C 59.285156 62.089844 56.953125 62.710938 54.222656 62.371094 C 51.679688 61.8125 50.152344 60.625 48.867188 58.984375 Z M 46.054688 60.597656 " fill-opacity="1" fill-rule="nonzero"/></g></svg>