<svg xmlns="http://www.w3.org/2000/svg" xmlns:xlink="http://www.w3.org/1999/xlink" width="100" zoomAndPan="magnify" viewBox="0 0 75 74.999997" height="100" preserveAspectRatio="xMidYMid meet" version="1.0"><defs><clipPath id="61f3338c86"><path d="M 0.578125 15.300781 L 74.078125 15.300781 L 74.078125 59.550781 L 0.578125 59.550781 Z M 0.578125 15.300781 " clip-rule="nonzero"/></clipPath></defs><g clip-path="url(#61f3338c86)"><path fill="#8fdcc2" d="M 37.5 15.332031 C 27.640625 15.332031 21.511719 20.242188 19.039062 30.101562 C 22.730469 25.191406 27.050781 23.34375 31.960938 24.5625 C 34.765625 25.265625 36.796875 27.292969 39.011719 29.546875 C 42.632812 33.238281 46.730469 37.484375 55.960938 37.484375 C 65.820312 37.484375 71.949219 32.574219 74.421875 22.714844 C 70.730469 27.625 66.410156 29.472656 61.5 28.253906 C 58.691406 27.554688 56.699219 25.523438 54.445312 23.269531 C 50.828125 19.578125 46.730469 15.332031 37.5 15.332031 Z M 19.039062 37.484375 C 9.179688 37.484375 3.050781 42.394531 0.574219 52.253906 C 4.269531 47.34375 8.589844 45.496094 13.5 46.714844 C 16.304688 47.417969 18.300781 49.449219 20.550781 51.699219 C 24.167969 55.394531 28.269531 59.640625 37.5 59.640625 C 47.359375 59.640625 53.488281 54.730469 55.960938 44.871094 C 52.269531 49.78125 47.949219 51.625 43.039062 50.410156 C 40.230469 49.707031 38.238281 47.675781 35.984375 45.425781 C 32.367188 41.730469 28.269531 37.484375 19.039062 37.484375 Z M 19.039062 37.484375 " fill-opacity="1" fill-rule="nonzero"/></g></svg>