<svg xmlns="http://www.w3.org/2000/svg" xmlns:xlink="http://www.w3.org/1999/xlink" width="100" zoomAndPan="magnify" viewBox="0 0 75 74.999997" height="100" preserveAspectRatio="xMidYMid meet" version="1.0"><defs><clipPath id="c70f7d2841"><path d="M 1.675781 0.671875 L 73.675781 0.671875 L 73.675781 74.171875 L 1.675781 74.171875 Z M 1.675781 0.671875 " clip-rule="nonzero"/></clipPath></defs><rect x="-7.5" width="90" fill="#ffffff" y="-7.5" height="89.999996" fill-opacity="1"/><rect x="-7.5" width="90" fill="#243831" y="-7.5" height="89.999996" fill-opacity="1"/><g clip-path="url(#c70f7d2841)"><path fill="#8fdcc2" d="M 37.59375 74.210938 C 37.164062 74.210938 36.746094 74.144531 36.339844 74.011719 L 12.527344 66.074219 C 11.808594 65.835938 11.210938 65.425781 10.730469 64.84375 C 10.246094 64.261719 9.953125 63.597656 9.851562 62.851562 L 1.914062 5.304688 C 1.875 5.023438 1.863281 4.738281 1.886719 4.457031 C 1.90625 4.175781 1.957031 3.898438 2.039062 3.625 C 2.121094 3.351562 2.226562 3.09375 2.363281 2.84375 C 2.5 2.59375 2.664062 2.363281 2.847656 2.148438 C 3.035156 1.9375 3.242188 1.742188 3.46875 1.574219 C 3.699219 1.40625 3.941406 1.261719 4.199219 1.144531 C 4.457031 1.027344 4.722656 0.9375 5 0.875 C 5.277344 0.816406 5.558594 0.785156 5.84375 0.785156 L 69.34375 0.785156 C 69.628906 0.785156 69.90625 0.816406 70.183594 0.875 C 70.460938 0.9375 70.730469 1.027344 70.988281 1.144531 C 71.246094 1.261719 71.488281 1.402344 71.714844 1.574219 C 71.941406 1.742188 72.148438 1.933594 72.335938 2.148438 C 72.523438 2.363281 72.683594 2.59375 72.820312 2.839844 C 72.957031 3.089844 73.066406 3.347656 73.148438 3.621094 C 73.226562 3.890625 73.277344 4.167969 73.300781 4.453125 C 73.324219 4.734375 73.3125 5.015625 73.273438 5.296875 L 65.335938 62.84375 C 65.234375 63.59375 64.941406 64.257812 64.460938 64.839844 C 63.976562 65.421875 63.378906 65.835938 62.660156 66.074219 L 38.847656 74.011719 C 38.441406 74.144531 38.023438 74.210938 37.59375 74.210938 Z M 17.375 59.328125 L 37.59375 66.058594 L 57.8125 59.308594 L 64.789062 8.722656 L 10.40625 8.722656 Z M 17.375 59.328125 " fill-opacity="1" fill-rule="nonzero"/></g><path fill="#8fdcc2" d="M 37.59375 57.34375 C 37.207031 57.34375 36.824219 57.285156 36.453125 57.175781 L 26.53125 54.199219 C 25.828125 53.988281 25.230469 53.609375 24.738281 53.070312 C 24.242188 52.527344 23.925781 51.894531 23.78125 51.175781 L 23.382812 49.191406 C 23.285156 48.691406 23.28125 48.191406 23.375 47.691406 C 23.46875 47.1875 23.648438 46.722656 23.921875 46.292969 C 24.195312 45.859375 24.539062 45.496094 24.953125 45.195312 C 25.367188 44.898438 25.820312 44.6875 26.316406 44.5625 C 26.8125 44.441406 27.3125 44.414062 27.816406 44.484375 C 28.320312 44.554688 28.796875 44.714844 29.238281 44.964844 C 29.683594 45.21875 30.0625 45.542969 30.378906 45.945312 C 30.699219 46.34375 30.929688 46.785156 31.078125 47.273438 L 37.59375 49.230469 L 43.945312 47.324219 L 44.925781 40.472656 L 33.625 40.472656 C 33.222656 40.476562 32.828125 40.417969 32.441406 40.296875 C 32.054688 40.179688 31.695312 40.003906 31.363281 39.777344 C 31.03125 39.546875 30.742188 39.273438 30.492188 38.957031 C 30.242188 38.640625 30.046875 38.292969 29.902344 37.914062 C 29.757812 37.539062 29.675781 37.148438 29.652344 36.746094 C 29.628906 36.339844 29.664062 35.945312 29.761719 35.550781 C 29.855469 35.160156 30.011719 34.792969 30.21875 34.445312 C 30.429688 34.101562 30.683594 33.796875 30.988281 33.527344 L 41.046875 24.597656 L 23.703125 24.597656 C 23.441406 24.597656 23.183594 24.574219 22.929688 24.523438 C 22.671875 24.472656 22.425781 24.398438 22.183594 24.296875 C 21.945312 24.199219 21.714844 24.074219 21.5 23.929688 C 21.28125 23.785156 21.082031 23.621094 20.898438 23.4375 C 20.710938 23.253906 20.546875 23.050781 20.402344 22.835938 C 20.257812 22.617188 20.136719 22.390625 20.035156 22.148438 C 19.9375 21.910156 19.859375 21.660156 19.808594 21.40625 C 19.757812 21.148438 19.734375 20.890625 19.734375 20.628906 C 19.734375 20.371094 19.757812 20.113281 19.808594 19.855469 C 19.859375 19.601562 19.9375 19.351562 20.035156 19.113281 C 20.136719 18.871094 20.257812 18.640625 20.402344 18.425781 C 20.546875 18.210938 20.710938 18.007812 20.898438 17.824219 C 21.082031 17.640625 21.28125 17.476562 21.5 17.332031 C 21.714844 17.1875 21.945312 17.0625 22.183594 16.964844 C 22.425781 16.863281 22.671875 16.789062 22.929688 16.738281 C 23.183594 16.6875 23.441406 16.660156 23.703125 16.660156 L 51.484375 16.660156 C 51.886719 16.660156 52.28125 16.71875 52.667969 16.839844 C 53.054688 16.957031 53.414062 17.132812 53.746094 17.359375 C 54.078125 17.589844 54.367188 17.863281 54.617188 18.179688 C 54.867188 18.496094 55.0625 18.84375 55.207031 19.222656 C 55.351562 19.597656 55.433594 19.988281 55.457031 20.390625 C 55.484375 20.792969 55.445312 21.191406 55.347656 21.582031 C 55.253906 21.976562 55.097656 22.34375 54.890625 22.6875 C 54.679688 23.035156 54.425781 23.339844 54.121094 23.605469 L 44.0625 32.535156 L 49.5 32.535156 C 49.785156 32.535156 50.066406 32.566406 50.34375 32.628906 C 50.621094 32.6875 50.890625 32.777344 51.148438 32.894531 C 51.40625 33.011719 51.648438 33.15625 51.878906 33.328125 C 52.105469 33.5 52.3125 33.691406 52.5 33.90625 C 52.683594 34.121094 52.847656 34.351562 52.984375 34.601562 C 53.117188 34.851562 53.226562 35.113281 53.308594 35.386719 C 53.386719 35.65625 53.4375 35.9375 53.457031 36.21875 C 53.480469 36.503906 53.46875 36.785156 53.429688 37.066406 L 51.445312 50.957031 C 51.335938 51.722656 51.027344 52.398438 50.523438 52.984375 C 50.019531 53.570312 49.398438 53.976562 48.65625 54.199219 L 38.734375 57.175781 C 38.363281 57.285156 37.980469 57.34375 37.59375 57.34375 Z M 37.59375 57.34375 " fill-opacity="1" fill-rule="nonzero"/></svg>